<?xml version="1.0" encoding="UTF-8"?><svg xmlns="http://www.w3.org/2000/svg" width="88" height="31" viewBox="0 0 88 31"><g id="Background"><rect width="88" height="31" fill="#26bd65"/></g><g id="_3D"><polygon points="88 0 88 31 0 31 2 29 86 29 86 2 88 0" fill="#263238" opacity=".5"/><polygon points="88 0 86 2 2 2 2 29 0 31 0 0 88 0" fill="#fff" opacity=".5"/></g><g id="Text"><path d="m34.47,5.49h1.22v7.47h-1.22v-7.47Z" fill="#fff"/><path d="m42.48,6.94c1,0,1.69.47,2.05.96v-.86h1.23v5.92h-1.23v-.88c-.38.5-1.09.98-2.07.98-1.54,0-2.77-1.26-2.77-3.08s1.24-3.03,2.79-3.03Zm.26,1.06c-.91,0-1.79.69-1.79,1.97s.88,2.02,1.79,2.02,1.79-.72,1.79-2-.87-1.99-1.79-1.99Z" fill="#fff"/><path d="m55.77,9.65c0-1.08-.59-1.64-1.48-1.64s-1.49.56-1.49,1.64v3.31h-1.21v-3.31c0-1.08-.59-1.64-1.48-1.64s-1.49.56-1.49,1.64v3.31h-1.22v-5.92h1.22v.68c.4-.48,1.04-.77,1.75-.77.94,0,1.72.4,2.13,1.17.37-.72,1.2-1.17,2.06-1.17,1.39,0,2.44.87,2.44,2.52v3.49h-1.21v-3.31Z" fill="#fff"/><path d="m65.53,9.65c0-1.08-.59-1.64-1.48-1.64s-1.49.56-1.49,1.64v3.31h-1.22v-5.92h1.22v.68c.4-.48,1.05-.77,1.76-.77,1.39,0,2.43.87,2.43,2.52v3.49h-1.21v-3.31Z" fill="#fff"/><path d="m70.86,13.05c-1.69,0-2.96-1.2-2.96-3.06s1.33-3.05,3.02-3.05,3.02,1.19,3.02,3.05-1.38,3.06-3.07,3.06Zm0-1.06c.91,0,1.81-.66,1.81-2s-.87-1.99-1.78-1.99-1.75.64-1.75,1.99.79,2,1.72,2Z" fill="#fff"/><path d="m75.34,8.04h-.7v-1h.7v-1.47h1.24v1.47h1.44v1h-1.44v3.28c0,.44.17.62.69.62h.75v1.02h-.97c-1.05,0-1.71-.44-1.71-1.64v-3.28Z" fill="#fff"/><path d="m39.6,17.94c1,0,1.69.47,2.05.96v-.86h1.23v5.92h-1.23v-.88c-.38.5-1.09.98-2.07.98-1.54,0-2.77-1.26-2.77-3.08s1.24-3.03,2.79-3.03Zm.26,1.06c-.91,0-1.79.69-1.79,1.97s.88,2.02,1.79,2.02,1.79-.72,1.79-2-.87-1.99-1.79-1.99Z" fill="#fff"/><path d="m48.52,23.96h-1.22v-5.92h1.22v.86c.34-.59.93-.96,1.77-.96v1.27h-.31c-.9,0-1.46.38-1.46,1.63v3.12Z" fill="#fff"/><path d="m53.98,24.05c-1.69,0-2.96-1.2-2.96-3.06s1.33-3.05,3.02-3.05,3.02,1.19,3.02,3.05-1.38,3.06-3.07,3.06Zm0-1.06c.91,0,1.82-.66,1.82-2s-.87-1.99-1.78-1.99-1.75.64-1.75,1.99.79,2,1.72,2Z" fill="#fff"/><path d="m61.55,17.94c1.57,0,2.78,1.2,2.78,3.03s-1.22,3.08-2.78,3.08c-.98,0-1.68-.44-2.06-.96v.86h-1.22v-7.95h1.22v2.91c.39-.54,1.13-.98,2.06-.98Zm-.27,1.06c-.91,0-1.79.72-1.79,1.99s.88,2,1.79,2,1.8-.74,1.8-2.02-.88-1.97-1.8-1.97Z" fill="#fff"/><path d="m68.11,24.05c-1.69,0-2.96-1.2-2.96-3.06s1.33-3.05,3.02-3.05,3.02,1.19,3.02,3.05-1.38,3.06-3.07,3.06Zm0-1.06c.91,0,1.82-.66,1.82-2s-.87-1.99-1.78-1.99-1.75.64-1.75,1.99.79,2,1.72,2Z" fill="#fff"/><path d="m72.59,19.04h-.7v-1h.7v-1.47h1.24v1.47h1.44v1h-1.44v3.28c0,.44.17.62.69.62h.75v1.02h-.97c-1.05,0-1.71-.44-1.71-1.64v-3.28Z" fill="#fff"/></g><g id="Image"><circle cx="15.37" cy="15.5" r="10.3" fill="#ffcc80" stroke="#263238" stroke-miterlimit="10" stroke-width="1.5"/><rect x="7.55" y="13.8" width="2.54" height="3.4" rx="1.27" ry="1.27" fill="#263238"/><rect x="20.65" y="13.8" width="2.54" height="3.4" rx="1.27" ry="1.27" fill="#263238"/><path d="m12.3,15.5v3.84c0,1.7,1.37,3.07,3.07,3.07s3.07-1.37,3.07-3.07v-3.84h-6.14Z" fill="#fff" stroke="#263238" stroke-miterlimit="10" stroke-width="1.5"/></g></svg>